<?xml version="1.0" encoding="UTF-8"?>
<svg version="1.1" xmlns="http://www.w3.org/2000/svg" width="122" height="60">
<path d="M0 0 C40.26 0 80.52 0 122 0 C122 19.8 122 39.6 122 60 C81.74 60 41.48 60 0 60 C0 40.2 0 20.4 0 0 Z " fill="#020202" transform="translate(0,0)"/>
<path d="M0 0 C8 0 8 0 11 2 C11.40373601 5.16259871 11.54458662 7.14012639 9.8125 9.875 C7.43963721 11.34781139 5.74086056 11.22223194 3 11 C3 12.65 3 14.3 3 16 C2.01 16 1.02 16 0 16 C0 10.72 0 5.44 0 0 Z " fill="#35F012" transform="translate(39,22)"/>
<path d="M0 0 C0.33 1.32 0.66 2.64 1 4 C-1.97 3.505 -1.97 3.505 -5 3 C-2.63379989 5.61527381 -0.057952 7.26440562 3 9 C2.25 13.75 2.25 13.75 0 16 C-2.68839385 16.26991906 -5.29141936 16.08737357 -8 16 C-8.33 14.68 -8.66 13.36 -9 12 C-6.36 12.33 -3.72 12.66 -1 13 C-1 12.01 -1 11.02 -1 10 C-1.94875 9.71125 -2.8975 9.4225 -3.875 9.125 C-7 8 -7 8 -9 6 C-8.75 3.4375 -8.75 3.4375 -8 1 C-5.29120665 -0.35439668 -2.99066732 -0.06501451 0 0 Z " fill="#34E912" transform="translate(61,22)"/>
<path d="M0 0 C0.99 0 1.98 0 3 0 C0.83836487 6.93998648 -1.8936214 13.43117569 -5 20 C-5.99 20 -6.98 20 -8 20 C-7.3316356 15.62221316 -5.77089558 11.77628147 -4 7.75 C-3.72671875 7.11320312 -3.4534375 6.47640625 -3.171875 5.8203125 C-1.14074248 1.14074248 -1.14074248 1.14074248 0 0 Z " fill="#32DF11" transform="translate(74,21)"/>
<path d="M0 0 C0.99 0.33 1.98 0.66 3 1 C3 1.66 3 2.32 3 3 C1 4.625 1 4.625 -1 6 C0.3089572 9.12197478 0.3089572 9.12197478 3 11 C2.67 11.99 2.34 12.98 2 14 C-1.43595166 12.47291037 -4.11912454 10.40072955 -7 8 C-5.51218185 4.21282653 -3.38011591 2.22592999 0 0 Z " fill="#32E011" transform="translate(32,24)"/>
<path d="M0 0 C3.43752007 1.5277867 6.18953688 3.50181056 9 6 C9 8 9 8 7.57421875 9.54296875 C6.95160156 10.08566406 6.32898438 10.62835938 5.6875 11.1875 C5.07261719 11.73792969 4.45773438 12.28835937 3.82421875 12.85546875 C3.22222656 13.23316406 2.62023437 13.61085938 2 14 C1.01 13.67 0.02 13.34 -1 13 C-1 12.34 -1 11.68 -1 11 C1 9.375 1 9.375 3 8 C1.6910428 4.87802522 1.6910428 4.87802522 -1 3 C-0.67 2.01 -0.34 1.02 0 0 Z " fill="#32E111" transform="translate(82,24)"/>
<path d="M0 0 C6.75 -0.125 6.75 -0.125 9 1 C9 2.65 9 4.3 9 6 C8.01 6.495 8.01 6.495 7 7 C6.67 6.01 6.34 5.02 6 4 C4.35 3.67 2.7 3.34 1 3 C1 4.65 1 6.3 1 8 C0.67 8 0.34 8 0 8 C0 5.36 0 2.72 0 0 Z " fill="#37F913" transform="translate(40,22)"/>
<path d="M0 0 C0.99 0.33 1.98 0.66 3 1 C3 1.66 3 2.32 3 3 C1.04072937 4.7143618 -0.95880212 6.38405168 -3 8 C-3 7.34 -3 6.68 -3 6 C-4.98 6.99 -4.98 6.99 -7 8 C-5.51218185 4.21282653 -3.38011591 2.22592999 0 0 Z " fill="#2FD310" transform="translate(32,24)"/>
<path d="M0 0 C2.475 0.495 2.475 0.495 5 1 C5 1.99 5 2.98 5 4 C3.35 4.33 1.7 4.66 0 5 C0 3.35 0 1.7 0 0 Z " fill="#0B2B04" transform="translate(42,25)"/>
</svg>
